<svg width="40" height="39" viewBox="0 0 40 39" fill="none" xmlns="http://www.w3.org/2000/svg">
<path d="M28.0402 16.8268C31.6822 16.8268 34.6342 13.8748 34.6342 10.2328C34.6342 6.59279 31.6822 3.63879 28.0402 3.63879" stroke="#029EEB" stroke-width="3" stroke-linecap="round" stroke-linejoin="round"/>
<path d="M31.0724 23.9928C32.1604 24.0668 33.2404 24.2228 34.3064 24.4588C35.7844 24.7528 37.5644 25.3588 38.1964 26.6848C38.6004 27.5348 38.6004 28.5248 38.1964 29.3748C37.5664 30.7008 35.7844 31.3068 34.3064 31.6108" stroke="#029EEB" stroke-width="3" stroke-linecap="round" stroke-linejoin="round"/>
<path fill-rule="evenodd" clip-rule="evenodd" d="M15.1828 25.4126C22.5628 25.4126 28.8668 26.5306 28.8668 30.9966C28.8668 35.4646 22.6028 36.6206 15.1828 36.6206C7.80279 36.6206 1.50079 35.5046 1.50079 31.0366C1.50079 26.5686 7.76279 25.4126 15.1828 25.4126Z" stroke="#029EEB" stroke-width="3" stroke-linecap="round" stroke-linejoin="round"/>
<path fill-rule="evenodd" clip-rule="evenodd" d="M15.1828 19.0376C10.3148 19.0376 6.41479 15.1356 6.41479 10.2676C6.41479 5.40163 10.3148 1.49963 15.1828 1.49963C20.0508 1.49963 23.9528 5.40163 23.9528 10.2676C23.9528 15.1356 20.0508 19.0376 15.1828 19.0376Z" stroke="#029EEB" stroke-width="3" stroke-linecap="round" stroke-linejoin="round"/>
</svg>
