<svg width="40" height="40" viewBox="0 0 40 40" fill="none" xmlns="http://www.w3.org/2000/svg">
<path fill-rule="evenodd" clip-rule="evenodd" d="M15.7548 26.4124C8.06679 26.4124 1.50079 27.5744 1.50079 32.2304C1.50079 36.8844 8.02479 38.0904 15.7548 38.0904C23.4428 38.0904 30.0088 36.9264 30.0088 32.2724C30.0088 27.6184 23.4848 26.4124 15.7548 26.4124Z" stroke="#029EEB" stroke-width="3" stroke-linecap="round" stroke-linejoin="round"/>
<path fill-rule="evenodd" clip-rule="evenodd" d="M15.7548 19.7718C20.8268 19.7718 24.8908 15.7058 24.8908 10.6358C24.8908 5.56376 20.8268 1.49976 15.7548 1.49976C10.6848 1.49976 6.6188 5.56376 6.6188 10.6358C6.6188 15.7058 10.6848 19.7718 15.7548 19.7718Z" stroke="#029EEB" stroke-width="3" stroke-linecap="round" stroke-linejoin="round"/>
<path d="M34.4082 13.3381V21.3581" stroke="#029EEB" stroke-width="3" stroke-linecap="round" stroke-linejoin="round"/>
<path d="M38.5 17.3479H30.32" stroke="#029EEB" stroke-width="3" stroke-linecap="round" stroke-linejoin="round"/>
</svg>
