<svg width="44" height="44" viewBox="0 0 44 44" fill="none" xmlns="http://www.w3.org/2000/svg">
<path fill-rule="evenodd" clip-rule="evenodd" d="M13.3905 24.7818C12.101 24.7818 11.0533 23.7342 11.0533 22.4447C11.0533 21.1589 12.101 20.1113 13.3905 20.1113C14.68 20.1113 15.7276 21.1589 15.7276 22.4447C15.7276 23.7342 14.68 24.7818 13.3905 24.7818ZM22.4762 24.7818C21.1867 24.7818 20.1391 23.7342 20.1391 22.4447C20.1391 21.1589 21.1867 20.1113 22.4762 20.1113C23.7657 20.1113 24.8133 21.1589 24.8133 22.4447C24.8133 23.7342 23.7657 24.7818 22.4762 24.7818ZM29.225 22.4447C29.225 23.7342 30.2726 24.7818 31.5621 24.7818C32.8516 24.7818 33.8993 23.7342 33.8993 22.4447C33.8993 21.1589 32.8516 20.1113 31.5621 20.1113C30.2726 20.1113 29.225 21.1589 29.225 22.4447Z" fill="#029EEB"/>
<path fill-rule="evenodd" clip-rule="evenodd" d="M22.04 2C10.42 2 2 11.4922 2 22.03C2 25.3951 2.98 28.8583 4.7 32.023C5.02 32.5458 5.06 33.2048 4.84 33.8277L3.5 38.3145C3.2 39.3961 4.12 40.1953 5.14 39.8748L9.18 38.675C10.28 38.3145 11.14 38.7732 12.16 39.3961C15.08 41.1167 18.72 42 22 42C31.92 42 42 34.3285 42 21.97C42 11.312 33.4 2 22.04 2Z" stroke="#029EEB" stroke-width="3" stroke-linecap="round" stroke-linejoin="round"/>
</svg>
