<svg width="41" height="42" viewBox="0 0 41 42" fill="none" xmlns="http://www.w3.org/2000/svg">
<path fill-rule="evenodd" clip-rule="evenodd" d="M39.048 15.5057C37.7699 7.63889 31.0879 1.78641 23.1213 1.55603C22.7425 1.54118 22.3733 1.67756 22.0952 1.9351C21.817 2.19265 21.6527 2.55022 21.6384 2.92903V2.92903V3.05717L22.5355 16.4759C22.5943 17.3792 23.3709 18.0659 24.2746 18.0137L37.73 17.1167C38.1091 17.0886 38.4614 16.9106 38.7088 16.6219C38.9562 16.3333 39.0783 15.9579 39.048 15.5789V15.5057Z" stroke="#029EEB" stroke-width="3" stroke-linecap="round" stroke-linejoin="round"/>
<path d="M13.8032 9.53778C14.6591 9.3398 15.535 9.77774 15.8902 10.5813C15.9832 10.7702 16.0391 10.9753 16.0549 11.1854C16.238 13.7849 16.6224 19.4783 16.8421 22.5538C16.8796 23.1078 17.1364 23.624 17.5555 23.9882C17.9747 24.3524 18.5217 24.5345 19.0755 24.4943V24.4943L30.3707 23.7987C30.875 23.7683 31.3693 23.9477 31.7368 24.2944C32.1042 24.6411 32.3121 25.1241 32.3112 25.6293V25.6293C31.8535 32.4501 26.953 38.1521 20.2786 39.6302C13.6042 41.1082 6.75454 38.0081 3.45995 32.0183C2.47645 30.2944 1.85362 28.3885 1.62929 26.4165C1.53339 25.8113 1.4966 25.1982 1.51945 24.5858C1.53888 17.3018 6.65446 11.0257 13.7849 9.53778" stroke="#029EEB" stroke-width="3" stroke-linecap="round" stroke-linejoin="round"/>
</svg>
