<svg width="187" height="32" viewBox="0 0 187 32" fill="none" xmlns="http://www.w3.org/2000/svg">
<path d="M72.088 16.96C72.0507 17.2027 72.0227 17.4267 72.004 17.632C71.9853 17.8187 71.976 17.9867 71.976 18.136C71.976 18.7707 72.1627 19.2653 72.536 19.62C72.928 19.9747 73.4413 20.152 74.076 20.152C74.3933 20.152 74.7107 20.1147 75.028 20.04C75.3453 19.9653 75.6347 19.8627 75.896 19.732L76.148 21.776C75.812 21.944 75.42 22.0747 74.972 22.168C74.524 22.28 74.0387 22.336 73.516 22.336C72.396 22.336 71.4347 22.0187 70.632 21.384C69.848 20.7307 69.456 19.7507 69.456 18.444C69.456 17.9587 69.4933 17.4827 69.568 17.016L72.312 1.28H74.832L72.088 16.96ZM84.1238 22.336C82.7425 22.336 81.5478 22.056 80.5398 21.496C79.5318 20.936 78.7478 20.1613 78.1878 19.172C77.6465 18.164 77.3758 17.0253 77.3758 15.756C77.3758 14.132 77.7025 12.6667 78.3558 11.36C79.0278 10.0533 79.9612 9.01733 81.1558 8.252C82.3505 7.48667 83.7598 7.104 85.3838 7.104C86.7652 7.104 87.9598 7.384 88.9678 7.944C89.9758 8.504 90.7505 9.27867 91.2918 10.268C91.8518 11.2573 92.1318 12.396 92.1318 13.684C92.1318 15.2893 91.8052 16.7547 91.1518 18.08C90.4985 19.3867 89.5652 20.4227 88.3518 21.188C87.1572 21.9533 85.7478 22.336 84.1238 22.336ZM84.2078 20.096C85.3278 20.096 86.2798 19.8253 87.0638 19.284C87.8665 18.724 88.4825 17.9773 88.9118 17.044C89.3412 16.1107 89.5558 15.0653 89.5558 13.908C89.5558 13.0493 89.3878 12.284 89.0518 11.612C88.7158 10.9213 88.2305 10.3707 87.5958 9.96C86.9612 9.54933 86.1958 9.344 85.2998 9.344C84.1985 9.344 83.2465 9.624 82.4438 10.184C81.6412 10.7253 81.0252 11.4627 80.5958 12.396C80.1665 13.3293 79.9518 14.3747 79.9518 15.532C79.9518 16.372 80.1198 17.1373 80.4558 17.828C80.7918 18.5187 81.2772 19.0693 81.9118 19.48C82.5465 19.8907 83.3118 20.096 84.2078 20.096ZM103.432 7.104C104.534 7.104 105.504 7.216 106.344 7.44C107.184 7.664 107.875 7.888 108.416 8.112L105.98 22.168C105.756 23.456 105.411 24.5107 104.944 25.332C104.496 26.1533 103.964 26.788 103.348 27.236C102.751 27.7027 102.116 28.0293 101.444 28.216C100.772 28.4027 100.11 28.496 99.4563 28.496C98.1869 28.496 97.1043 28.2347 96.2083 27.712C95.3309 27.1893 94.6123 26.5827 94.0523 25.892L96.0123 24.436C96.9269 25.6867 98.1309 26.312 99.6243 26.312C100.558 26.312 101.379 25.9667 102.088 25.276C102.798 24.5853 103.302 23.4093 103.6 21.748L104.076 19.004C103.554 19.844 102.9 20.5533 102.116 21.132C101.351 21.7107 100.483 22 99.5123 22C98.6163 22 97.7576 21.776 96.9363 21.328C96.1336 20.88 95.4709 20.2267 94.9483 19.368C94.4443 18.5093 94.1923 17.4547 94.1923 16.204C94.1923 14.3933 94.5936 12.8067 95.3963 11.444C96.1989 10.0813 97.3003 9.01733 98.7003 8.252C100.1 7.48667 101.678 7.104 103.432 7.104ZM96.7683 15.924C96.7683 16.764 96.9269 17.4733 97.2443 18.052C97.5803 18.612 98.0096 19.0413 98.5323 19.34C99.0549 19.62 99.6056 19.76 100.184 19.76C100.894 19.76 101.566 19.508 102.2 19.004C102.835 18.5 103.386 17.7907 103.852 16.876C104.338 15.9613 104.692 14.888 104.916 13.656L105.644 9.596C105.29 9.484 104.916 9.4 104.524 9.344C104.132 9.26933 103.675 9.232 103.152 9.232C101.902 9.232 100.791 9.53067 99.8203 10.128C98.8683 10.7067 98.1216 11.5 97.5803 12.508C97.0389 13.516 96.7683 14.6547 96.7683 15.924ZM117.1 22.336C115.719 22.336 114.524 22.056 113.516 21.496C112.508 20.936 111.724 20.1613 111.164 19.172C110.623 18.164 110.352 17.0253 110.352 15.756C110.352 14.132 110.679 12.6667 111.332 11.36C112.004 10.0533 112.938 9.01733 114.132 8.252C115.327 7.48667 116.736 7.104 118.36 7.104C119.742 7.104 120.936 7.384 121.944 7.944C122.952 8.504 123.727 9.27867 124.268 10.268C124.828 11.2573 125.108 12.396 125.108 13.684C125.108 15.2893 124.782 16.7547 124.128 18.08C123.475 19.3867 122.542 20.4227 121.328 21.188C120.134 21.9533 118.724 22.336 117.1 22.336ZM117.184 20.096C118.304 20.096 119.256 19.8253 120.04 19.284C120.843 18.724 121.459 17.9773 121.888 17.044C122.318 16.1107 122.532 15.0653 122.532 13.908C122.532 13.0493 122.364 12.284 122.028 11.612C121.692 10.9213 121.207 10.3707 120.572 9.96C119.938 9.54933 119.172 9.344 118.276 9.344C117.175 9.344 116.223 9.624 115.42 10.184C114.618 10.7253 114.002 11.4627 113.572 12.396C113.143 13.3293 112.928 14.3747 112.928 15.532C112.928 16.372 113.096 17.1373 113.432 17.828C113.768 18.5187 114.254 19.0693 114.888 19.48C115.523 19.8907 116.288 20.096 117.184 20.096ZM127.673 7.972H130.249L131.593 3.38H133.525L132.713 7.972H136.745L136.381 10.156H132.321L131.145 16.96C131.107 17.1653 131.079 17.3613 131.061 17.548C131.042 17.716 131.033 17.8747 131.033 18.024C131.033 18.6773 131.229 19.1907 131.621 19.564C132.013 19.9187 132.526 20.096 133.161 20.096C133.702 20.096 134.159 20.0213 134.533 19.872C134.906 19.704 135.242 19.536 135.541 19.368L135.849 21.552C135.494 21.7573 135.046 21.9347 134.505 22.084C133.982 22.252 133.394 22.336 132.741 22.336C132.05 22.336 131.378 22.196 130.725 21.916C130.09 21.636 129.567 21.1973 129.157 20.6C128.746 19.984 128.541 19.1907 128.541 18.22C128.541 17.8093 128.578 17.352 128.653 16.848L129.801 10.156H127.309L127.673 7.972ZM143.37 19.76C144.08 19.76 144.77 19.536 145.442 19.088C146.133 18.64 146.74 17.996 147.262 17.156C147.785 16.2973 148.149 15.2613 148.354 14.048L149.502 7.44H152.022L149.474 22.168C149.25 23.456 148.905 24.5107 148.438 25.332C147.99 26.1533 147.458 26.788 146.842 27.236C146.245 27.7027 145.61 28.0293 144.938 28.216C144.266 28.4027 143.604 28.496 142.95 28.496C141.681 28.496 140.598 28.2347 139.702 27.712C138.825 27.1893 138.106 26.5827 137.546 25.892L139.506 24.436C140.421 25.6867 141.625 26.312 143.118 26.312C144.052 26.312 144.873 25.9667 145.582 25.276C146.292 24.5853 146.796 23.4093 147.094 21.748L147.626 18.78C147.066 19.676 146.357 20.4413 145.498 21.076C144.64 21.692 143.65 22 142.53 22C141.802 22 141.13 21.8413 140.514 21.524C139.898 21.188 139.404 20.712 139.03 20.096C138.657 19.48 138.47 18.752 138.47 17.912C138.47 17.7067 138.47 17.4733 138.47 17.212C138.489 16.9507 138.526 16.6707 138.582 16.372L140.094 7.44H142.614L141.074 16.316C141.018 16.652 140.99 16.9693 140.99 17.268C140.99 18.108 141.224 18.7333 141.69 19.144C142.176 19.5547 142.736 19.76 143.37 19.76ZM155.482 7.44C157.423 7.44 158.394 8.28 158.394 9.96V10.548C158.935 9.54 159.635 8.71867 160.494 8.084C161.352 7.43067 162.351 7.104 163.49 7.104C164.498 7.104 165.375 7.36533 166.122 7.888C166.868 8.392 167.438 9.10133 167.83 10.016C168.24 10.912 168.446 11.9573 168.446 13.152C168.446 14.5333 168.24 15.7933 167.83 16.932C167.438 18.052 166.896 19.0227 166.206 19.844C165.515 20.6467 164.74 21.2627 163.882 21.692C163.023 22.1213 162.136 22.336 161.222 22.336C160.326 22.336 159.486 22.112 158.702 21.664C157.936 21.216 157.339 20.6653 156.91 20.012L155.482 28.16H152.962L155.874 11.5C155.93 11.1827 155.958 10.9213 155.958 10.716C155.958 9.83867 155.5 9.4 154.586 9.4L155.482 7.44ZM160.998 20.096C161.875 20.096 162.678 19.816 163.406 19.256C164.152 18.6773 164.75 17.884 165.198 16.876C165.646 15.868 165.87 14.7107 165.87 13.404C165.87 12.1347 165.58 11.136 165.002 10.408C164.423 9.66133 163.667 9.288 162.734 9.288C161.987 9.288 161.268 9.52133 160.578 9.988C159.906 10.4547 159.327 11.108 158.842 11.948C158.356 12.788 158.011 13.7773 157.806 14.916L157.302 17.744C157.712 18.4907 158.244 19.0693 158.898 19.48C159.551 19.8907 160.251 20.096 160.998 20.096ZM176.917 22.336C175.685 22.336 174.593 22.0747 173.641 21.552C172.708 21.0107 171.971 20.2453 171.429 19.256C170.907 18.248 170.645 17.0627 170.645 15.7C170.645 14.1507 170.963 12.7227 171.597 11.416C172.251 10.1093 173.165 9.064 174.341 8.28C175.536 7.496 176.927 7.104 178.513 7.104C179.596 7.104 180.511 7.30933 181.257 7.72C182.023 8.13067 182.611 8.66267 183.021 9.316C183.432 9.96933 183.637 10.6693 183.637 11.416C183.637 12.4427 183.395 13.292 182.909 13.964C182.424 14.636 181.799 15.1587 181.033 15.532C180.268 15.8867 179.437 16.1387 178.541 16.288C177.664 16.4373 176.824 16.512 176.021 16.512C175.517 16.512 175.013 16.4933 174.509 16.456C174.024 16.4 173.595 16.344 173.221 16.288C173.371 17.52 173.809 18.4627 174.537 19.116C175.265 19.7693 176.199 20.096 177.337 20.096C178.271 20.096 179.101 19.9747 179.829 19.732C180.557 19.4893 181.173 19.2467 181.677 19.004L181.901 21.244C181.341 21.5053 180.632 21.7573 179.773 22C178.915 22.224 177.963 22.336 176.917 22.336ZM178.317 9.232C177.44 9.232 176.647 9.456 175.937 9.904C175.228 10.3333 174.64 10.9307 174.173 11.696C173.725 12.4427 173.427 13.3013 173.277 14.272C173.707 14.3467 174.136 14.412 174.565 14.468C175.013 14.5053 175.499 14.524 176.021 14.524C177.589 14.524 178.831 14.3093 179.745 13.88C180.66 13.432 181.117 12.676 181.117 11.612C181.117 10.9587 180.856 10.3987 180.333 9.932C179.829 9.46533 179.157 9.232 178.317 9.232Z" fill="#010849"/>
<path d="M30.7478 16.936C30.7479 17.1402 30.7079 17.3423 30.6299 17.531C30.5519 17.7196 30.4375 17.8911 30.2932 18.0355L23.1603 25.1684C21.2631 27.0659 18.8458 28.3583 16.2141 28.8819C13.5824 29.4056 10.8545 29.1371 8.37538 28.1103C5.89629 27.0836 3.77735 25.3447 2.28654 23.1137C0.795724 20.8826 0 18.2596 0 15.5763C0 12.893 0.795724 10.2699 2.28654 8.03888C3.77735 5.80783 5.89629 4.06897 8.37538 3.04222C10.8545 2.01548 13.5824 1.74697 16.2141 2.27063C18.8458 2.79428 21.2631 4.08661 23.1603 5.98416C23.3047 6.12854 23.4192 6.29995 23.4974 6.48859C23.5755 6.67724 23.6157 6.87942 23.6157 7.0836C23.6157 7.28779 23.5755 7.49 23.4974 7.67864C23.4192 7.86729 23.3047 8.03869 23.1603 8.18307C23.0159 8.32746 22.8445 8.44198 22.6559 8.52012C22.4672 8.59826 22.265 8.63849 22.0608 8.63849C21.8567 8.63849 21.6545 8.59826 21.4658 8.52012C21.2772 8.44198 21.1058 8.32746 20.9614 8.18307C19.4992 6.72116 17.6364 5.72566 15.6084 5.32242C13.5805 4.91918 11.4785 5.12633 9.5683 5.91767C7.65809 6.70901 6.02542 8.04901 4.87674 9.76822C3.72806 11.4874 3.11495 13.5086 3.11495 15.5763C3.11495 17.6439 3.72806 19.6651 4.87674 21.3843C6.02542 23.1035 7.65809 24.4435 9.5683 25.2349C11.4785 26.0262 13.5805 26.2334 15.6084 25.8301C17.6364 25.4269 19.4992 24.4314 20.9614 22.9695L28.0904 15.8366C28.3075 15.6177 28.5849 15.4683 28.8871 15.4074C29.1894 15.3466 29.503 15.3771 29.7879 15.4949C30.0728 15.6128 30.3162 15.8128 30.4871 16.0694C30.658 16.326 30.7488 16.6277 30.7478 16.936Z" fill="#9BD2FF"/>
<path d="M19.7531 10.9454C19.7534 11.2529 19.6624 11.5536 19.4916 11.8094C19.3209 12.0652 19.0781 12.2645 18.794 12.3822C18.5099 12.5 18.1972 12.5308 17.8956 12.4707C17.594 12.4106 17.317 12.2624 17.0997 12.0448C16.4011 11.3458 15.5109 10.8695 14.5416 10.6765C13.5723 10.4834 12.5676 10.5821 11.6545 10.9602C10.7413 11.3382 9.96081 11.9785 9.41166 12.8002C8.86251 13.6219 8.5694 14.588 8.5694 15.5763C8.5694 16.5646 8.86251 17.5307 9.41166 18.3524C9.96081 19.1741 10.7413 19.8145 11.6545 20.1925C12.5676 20.5705 13.5723 20.6693 14.5416 20.4762C15.5109 20.2831 16.4011 19.8069 17.0997 19.1078C17.244 18.9632 17.4155 18.8484 17.6042 18.77C17.793 18.6916 17.9953 18.6512 18.1997 18.651C18.4041 18.6508 18.6065 18.6909 18.7953 18.769C18.9842 18.847 19.1559 18.9615 19.3005 19.1059C19.4452 19.2503 19.5599 19.4217 19.6383 19.6105C19.7167 19.7992 19.7571 20.0015 19.7573 20.2059C19.7575 20.4103 19.7174 20.6127 19.6394 20.8016C19.5613 20.9904 19.4468 21.1621 19.3025 21.3067C18.1691 22.4401 16.7251 23.212 15.153 23.5247C13.581 23.8375 11.9515 23.677 10.4706 23.0636C8.98975 22.4502 7.72403 21.4115 6.83352 20.0788C5.94301 18.7461 5.46771 17.1792 5.46771 15.5763C5.46771 13.9735 5.94301 12.4066 6.83352 11.0739C7.72403 9.74115 8.98975 8.70242 10.4706 8.08904C11.9515 7.47567 13.581 7.31519 15.153 7.62791C16.7251 7.94063 18.1691 8.7125 19.3025 9.84591C19.5924 10.1382 19.7545 10.5337 19.7531 10.9454Z" fill="#029EEB"/>
<path d="M51.8162 15.5765C51.8159 18.2594 51.0201 20.882 49.5293 23.1127C48.0386 25.3434 45.9199 27.082 43.4412 28.1087C40.9624 29.1354 38.2349 29.404 35.6035 28.8807C32.9721 28.3574 30.5549 27.0656 28.6576 25.1686C28.5132 25.0242 28.3987 24.8528 28.3205 24.6642C28.2424 24.4755 28.2022 24.2733 28.2022 24.0691C28.2022 23.865 28.2424 23.6627 28.3205 23.4741C28.3987 23.2855 28.5132 23.1141 28.6576 22.9697C28.802 22.8253 28.9734 22.7108 29.162 22.6326C29.3507 22.5545 29.5529 22.5143 29.7571 22.5143C29.9613 22.5143 30.1634 22.5545 30.3521 22.6326C30.5407 22.7108 30.7121 22.8253 30.8565 22.9697C32.3187 24.4316 34.1815 25.4271 36.2095 25.8303C38.2374 26.2336 40.3394 26.0264 42.2496 25.2351C44.1598 24.4437 45.7925 23.1037 46.9412 21.3845C48.0899 19.6653 48.703 17.6441 48.703 15.5765C48.703 13.5088 48.0899 11.4876 46.9412 9.76842C45.7925 8.04921 44.1598 6.70922 42.2496 5.91788C40.3394 5.12654 38.2374 4.91939 36.2095 5.32263C34.1815 5.72586 32.3187 6.72137 30.8565 8.18328L23.7275 15.3162C23.4359 15.6078 23.0404 15.7716 22.6281 15.7716C22.2157 15.7716 21.8202 15.6078 21.5286 15.3162C21.237 15.0246 21.0732 14.6291 21.0732 14.2167C21.0732 13.8043 21.237 13.4089 21.5286 13.1173L28.6576 5.9727C30.5549 4.07573 32.9721 2.78391 35.6035 2.26059C38.2349 1.73726 40.9624 2.00593 43.4412 3.03261C45.9199 4.05929 48.0386 5.79787 49.5293 8.02855C51.0201 10.2592 51.8159 12.8819 51.8162 15.5648V15.5765Z" fill="#029EEB"/>
<path d="M46.3578 15.5765C46.3566 17.1793 45.8805 18.7458 44.9895 20.0781C44.0985 21.4104 42.8326 22.4488 41.3518 23.062C39.8709 23.6752 38.2416 23.8357 36.6695 23.5234C35.0974 23.211 33.6532 22.4397 32.5193 21.3069C32.2277 21.0153 32.0639 20.6198 32.0639 20.2074C32.0639 19.7951 32.2277 19.3996 32.5193 19.108C32.8109 18.8164 33.2064 18.6526 33.6188 18.6526C34.0312 18.6526 34.4267 18.8164 34.7182 19.108C35.4168 19.8071 36.307 20.2833 37.2763 20.4764C38.2456 20.6694 39.2503 20.5707 40.1634 20.1927C41.0766 19.8146 41.8571 19.1743 42.4062 18.3526C42.9554 17.5309 43.2485 16.5648 43.2485 15.5765C43.2485 14.5882 42.9554 13.6221 42.4062 12.8004C41.8571 11.9787 41.0766 11.3383 40.1634 10.9603C39.2503 10.5823 38.2456 10.4835 37.2763 10.6766C36.307 10.8697 35.4168 11.3459 34.7182 12.045C34.4267 12.3366 34.0312 12.5004 33.6188 12.5004C33.2064 12.5004 32.8109 12.3366 32.5193 12.045C32.2277 11.7534 32.0639 11.3579 32.0639 10.9455C32.0639 10.5332 32.2277 10.1377 32.5193 9.84607C33.6532 8.71328 35.0974 7.94199 36.6695 7.62961C38.2416 7.31723 39.8709 7.47779 41.3518 8.091C42.8326 8.70421 44.0985 9.74257 44.9895 11.0749C45.8805 12.4072 46.3566 13.9737 46.3578 15.5765Z" fill="#9BD2FF"/>
</svg>
