<svg width="40" height="40" viewBox="0 0 40 40" fill="none" xmlns="http://www.w3.org/2000/svg">
<path fill-rule="evenodd" clip-rule="evenodd" d="M20.0004 1.50037C30.2164 1.50037 38.5004 9.78437 38.5004 20.0004C38.5004 30.2164 30.2164 38.5004 20.0004 38.5004C9.78243 38.5004 1.50043 30.2164 1.50043 20.0004C1.50043 9.78437 9.78243 1.50037 20.0004 1.50037Z" stroke="#029EEB" stroke-width="3" stroke-linecap="round" stroke-linejoin="round"/>
<path d="M11.0414 22.3947C9.71939 22.3947 8.64539 21.3207 8.64539 20.0007C8.64539 18.6807 9.71939 17.6047 11.0414 17.6047C12.3634 17.6047 13.4374 18.6807 13.4374 20.0007C13.4374 21.3207 12.3634 22.3947 11.0414 22.3947Z" fill="#029EEB"/>
<path d="M20.0004 22.3947C18.6784 22.3947 17.6044 21.3207 17.6044 20.0007C17.6044 18.6807 18.6784 17.6047 20.0004 17.6047C21.3224 17.6047 22.3964 18.6807 22.3964 20.0007C22.3964 21.3207 21.3224 22.3947 20.0004 22.3947Z" fill="#029EEB"/>
<path d="M28.9584 22.3947C27.6364 22.3947 26.5624 21.3207 26.5624 20.0007C26.5624 18.6807 27.6364 17.6047 28.9584 17.6047C30.2804 17.6047 31.3544 18.6807 31.3544 20.0007C31.3544 21.3207 30.2804 22.3947 28.9584 22.3947Z" fill="#029EEB"/>
</svg>
