<svg width="20" height="23" viewBox="0 0 20 23" fill="none" xmlns="http://www.w3.org/2000/svg">
<path fill-rule="evenodd" clip-rule="evenodd" d="M1.50083 13.7871V13.5681C1.53295 12.9202 1.7406 12.2925 2.10236 11.7496C2.7045 11.0975 3.1167 10.2983 3.29571 9.43598C3.29571 8.7695 3.29571 8.0935 3.35393 7.42703C3.65469 4.21842 6.82728 2 9.96106 2H10.0387C13.1725 2 16.345 4.21842 16.6555 7.42703C16.7137 8.0935 16.6555 8.7695 16.704 9.43598C16.8854 10.3003 17.2972 11.1019 17.8974 11.7591C18.2618 12.2972 18.4698 12.9227 18.4989 13.5681V13.7776C18.5206 14.648 18.2208 15.4968 17.6548 16.1674C16.907 16.9515 15.8921 17.4393 14.8024 17.5384C11.607 17.8812 8.38303 17.8812 5.18762 17.5384C4.09914 17.435 3.08576 16.9479 2.33521 16.1674C1.778 15.4963 1.48224 14.6526 1.50083 13.7871Z" stroke="#010849" stroke-width="1.5" stroke-linecap="round" stroke-linejoin="round"/>
<circle cx="16" cy="4" r="3.5" fill="#029EEB" stroke="#F1F9FF"/>
<path d="M7.55493 20.8518C8.05421 21.4784 8.78739 21.884 9.59222 21.9787C10.3971 22.0734 11.2072 21.8495 11.8433 21.3564C12.0389 21.2106 12.2149 21.041 12.3672 20.8518" stroke="#010849" stroke-width="1.5" stroke-linecap="round" stroke-linejoin="round"/>
</svg>
