<svg width="38" height="44" viewBox="0 0 38 44" fill="none" xmlns="http://www.w3.org/2000/svg">
<path fill-rule="evenodd" clip-rule="evenodd" d="M2.00165 25.5742V25.1363C2.0659 23.8405 2.4812 22.585 3.20471 21.4992C4.409 20.1949 5.23341 18.5966 5.59143 16.872C5.59143 15.539 5.59143 14.187 5.70785 12.8541C6.30938 6.43683 12.6546 2 18.9221 2H19.0773C25.3449 2 31.6901 6.43683 32.311 12.8541C32.4274 14.187 32.311 15.539 32.408 16.872C32.7709 18.6006 33.5944 20.2039 34.7947 21.5183C35.5237 22.5944 35.9396 23.8453 35.9978 25.1363V25.5552C36.0411 27.2961 35.4415 28.9936 34.3096 30.3348C32.8139 31.9029 30.7842 32.8785 28.6048 33.0769C22.214 33.7624 15.7661 33.7624 9.37525 33.0769C7.19829 32.87 5.17152 31.8958 3.67041 30.3348C2.556 28.9926 1.96448 27.3052 2.00165 25.5742Z" stroke="#029EEB" stroke-width="3" stroke-linecap="round" stroke-linejoin="round"/>
<path d="M14.1099 39.7036C15.1084 40.957 16.5748 41.7681 18.1844 41.9575C19.7941 42.1469 21.4143 41.699 22.6865 40.7128C23.0778 40.4212 23.4299 40.0821 23.7343 39.7036" stroke="#029EEB" stroke-width="3" stroke-linecap="round" stroke-linejoin="round"/>
</svg>
